PathFileType	4	(X/Y/Z)	path1_15_0-580.trc
DataRate	CameraRate	NumFrames	NumMarkers	Units	OrigDataRate	OrigDataStartFrame	OrigNumFrames
30	30	8	22	m	30	435	580
Frame#	Time	Hip			RHip			RKnee			RAnkle			RBigToe			RSmallToe			RHeel			LHip			LKnee			LAnkle			LBigToe			LSmallToe			LHeel			Neck			Head			Nose			RShoulder			RElbow			RWrist			LShoulder			LElbow			LWrist		
		X1	Y1	Z1	X2	Y2	Z2	X3	Y3	Z3	X4	Y4	Z4	X5	Y5	Z5	X6	Y6	Z6	X7	Y7	Z7	X8	Y8	Z8	X9	Y9	Z9	X10	Y10	Z10	X11	Y11	Z11	X12	Y12	Z12	X13	Y13	Z13	X14	Y14	Z14	X15	Y15	Z15	X16	Y16	Z16	X17	Y17	Z17	X18	Y18	Z18	X19	Y19	Z19	X20	Y20	Z20	X21	Y21	Z21	X22	Y22	Z22
436	14.533333333333331	-0.40129427653291466	0.817083724478318	0.7211777035423668	-0.42247134055942687	0.7865574047994909	0.6224519034441306	-0.5695281776377155	0.44467441433293514	0.6407195314049428	-0.6683961857370596	0.09839154647219843	0.6821673144712794	-0.8502773237107903	0.06946908105920752	0.6681241068848902	-0.8275091678078882	0.04645057100133844	0.6323962171068995	-0.6383293315675481	0.02972028797515114	0.6815327634256079	-0.3735886354953948	0.7794996913437411	0.8091478050535683	-0.2925623243311938	0.4497080046184271	0.7840195665870986	-0.06751302296254051	0.15969018347355032	0.7588521117801562	-0.18104808373439885	0.012448257758697682	0.7681955629099044	-0.14102187278820263	0.022435080297588027	0.8082542173438596	0.0064689502612964855	0.11912057967667547	0.7372250893902523	-0.43248243313063844	1.4240817200342675	0.7140860562067023	-0.49965548066724536	1.6633973386296295	0.7024370152607444	-0.5482051937739179	1.5229055822979707	0.6691824095813225	-0.4127681427162605	1.3308986546493773	0.5283701144177877	-0.29980235007125994	1.0659920719716354	0.5095975786515607	-0.28804677944190116	0.8254344824008393	0.4679218751901374	-0.4262967936392051	1.318040309051735	0.8968143285315747	-0.47142686122086236	1.0603279030817565	0.9701662635619107	-0.6365533384346578	0.8606591873189107	0.961616054727157
437	14.566666666666666	-0.4471368477083247	0.8179107299941445	0.7191858843969277	-0.4660276062416787	0.7884927096899309	0.6212529548913501	-0.6034046824885552	0.4439301762065293	0.6432406696304362	-0.6806793367968729	0.09259278712605948	0.6870970292823606	-0.8634169249884045	0.05389879340210503	0.6760495950907365	-0.837746273068068	0.03180667219951382	0.6379618453157336	-0.6463367759609661	0.021911807149858437	0.6906541730456017	-0.4231029477300213	0.7811091662023669	0.8066599324872558	-0.3548817447761256	0.4493430531522227	0.7840638778019363	-0.10766042713142132	0.18392041650239296	0.7629582843822176	-0.18477230259823288	0.013275780887471871	0.7692800493914155	-0.14688908026139275	0.027588348883074685	0.8105653713497892	-0.028184167330316135	0.15474605325778637	0.7459066325211243	-0.4754049192882855	1.4245500692703323	0.7102118416837914	-0.546845315313947	1.6677380558435604	0.7007896466496604	-0.5680638990052018	1.5179324061931796	0.640061324033419	-0.4573096697350721	1.3304928409733914	0.524802980687946	-0.3434049002607343	1.0653541434569846	0.5088200472705124	-0.33359664902425246	0.8238548947471309	0.46689795648485477	-0.46881490863012004	1.3196038335219926	0.8942209110749303	-0.5059426058998051	1.0602872566216168	0.9651971032186951	-0.6691126910613447	0.858259886438732	0.9615540512878964
438	14.6	-0.4928787655552316	0.8205536700945043	0.7173978088757237	-0.5088374296495165	0.7925361862617543	0.6203363796996914	-0.6327555455587328	0.44492337394272213	0.6445221968373033	-0.6863718522491252	0.08905153932127455	0.6892747059569748	-0.8719338789209365	0.03949140444249889	0.6832563729935972	-0.8406895727910542	0.020136372285844105	0.640500499252201	-0.6492382541865575	0.01693329259627983	0.6975303143348793	-0.47246503622766634	0.7851457061499063	0.8046406942686085	-0.4236434914829454	0.4494057200464657	0.7865932268276964	-0.16062848387394196	0.20928065652936959	0.7680034249028684	-0.2010689877440738	0.01602438362105127	0.7729065335611217	-0.16485688499391016	0.03674202433498324	0.8155287002173616	-0.07631908752994854	0.1916590859590044	0.7543063600027251	-0.5180435006815793	1.4270002134715383	0.7064001479219651	-0.596089842799173	1.6755574870376142	0.7009362124875994	-0.5923880647742981	1.5154551651490462	0.6173545582588168	-0.501283164495014	1.3324171032536416	0.5215894066584748	-0.39024186243472897	1.0661163662623072	0.5072932618510507	-0.3844481755864049	0.8231722127988114	0.465410582335375	-0.5102209703942934	1.3236253044580684	0.8925355438241874	-0.5399536409352235	1.0621272921501201	0.9580080626518845	-0.696815212251728	0.856261256066001	0.9624521093793184
439	14.633333333333333	-0.5377192156306032	0.8243205418940157	0.7159794167202722	-0.5503651589227555	0.7975356714360845	0.6198016764872492	-0.6570713899697344	0.4475011062602617	0.6450010108045314	-0.6881524557513877	0.0874362031983696	0.6896110922451035	-0.8770123966165216	0.027882045279790862	0.6889175603340028	-0.8394832163150017	0.012128047905694987	0.6412788868902466	-0.6490386075015941	0.014902065214649674	0.7017416093946249	-0.5206962454137795	0.7906452513226487	0.8031859657168579	-0.4965085326011081	0.4507720031957877	0.7918622746815553	-0.2243030392805991	0.23283786052251598	0.7736533258540677	-0.23607229018435966	0.020501132320472612	0.7792620339966466	-0.20018583827953323	0.04964687396814937	0.8237027732267274	-0.13631697340807464	0.22432589996261365	0.7614476192939232	-0.5597348952647301	1.430962198196217	0.7030322389134008	-0.6450863979699026	1.684659714703029	0.7018734591603382	-0.6278802465792532	1.516921442240222	0.6089393297004801	-0.5441757172074562	1.3362596837939114	0.5188929284255518	-0.4396700831906054	1.0678908873745598	0.5049817861281314	-0.4397772272303318	0.8233372096377111	0.46362644775764256	-0.5503096193971098	1.3296115970361129	0.891673375736111	-0.5730426237546913	1.0655361778153118	0.9504555188646119	-0.7201801318129752	0.8551036649232671	0.9643215374591795
440	14.666666666666666	-0.5811972683928233	0.8285781242406234	0.7151327940620408	-0.5902948435201762	0.8026069705227773	0.6196544373854127	-0.6765427713115056	0.4517676572472194	0.6452670483366602	-0.688084054924704	0.08725444524244279	0.6890732534783424	-0.8792925955435049	0.019821082304744796	0.6924365049580402	-0.8367905925255662	0.00741154502326869	0.6414358082828492	-0.646941821583252	0.01534438609452991	0.7032005031259676	-0.567383477344944	0.7967153691992201	0.8025378539597432	-0.5710345187761476	0.45409520541372417	0.799270132928894	-0.2955215201020353	0.2514361259367186	0.7793988876341452	-0.2937439266765029	0.025741709464293588	0.7878815843104029	-0.25697888058646756	0.0637676046441209	0.8339989315193842	-0.2055499087761664	0.24790780336420307	0.7669366866387864	-0.6000396136453738	1.4358458264281015	0.7004322035473579	-0.6918194891978348	1.693123605497018	0.7028033677215285	-0.6768867242987047	1.5226176727743455	0.6176355763565413	-0.5856385422939308	1.3414422857899047	0.5168062975939509	-0.4910901575895034	1.0703001735035809	0.5018648128614223	-0.49892411677703397	0.8244967800882654	0.4617114228873326	-0.5889547029457723	1.3367905242843303	0.8914269991745244	-0.6042666659374609	1.0697886237308158	0.9444802670188751	-0.7397685651265492	0.8547358052884475	0.9669925404471857
441	14.7	-0.6230320286354623	0.8329145541111816	0.7150936891102604	-0.6284392493707779	0.8073282200164955	0.6198338225403179	-0.6919238063808633	0.4575831928190698	0.6456639166927155	-0.6874323062370045	0.08808130965074351	0.6883904320343173	-0.8792568332605825	0.015325595052335612	0.6937262370100743	-0.8341270323024979	0.005134688009878261	0.6414842662069269	-0.6441550166413189	0.017554701135524747	0.7026264215794229	-0.6123325131589401	0.8027070789550663	0.8030270627358413	-0.6447243357399803	0.45921977572642436	0.8077385341895333	-0.37178380906478753	0.2620363742625782	0.7849156550307047	-0.37438261361653613	0.03023239313063686	0.7977380798873829	-0.33677145511441536	0.07443177726218903	0.8439881019689623	-0.2819374415158154	0.25893072928878047	0.771016261779286	-0.6387760628657767	1.4410430988122107	0.6987025911226546	-0.73537124036119	1.700061896314153	0.7034999413677286	-0.7367239231435638	1.5315388471269589	0.6403916516833473	-0.6255270908093384	1.3473144011160938	0.515370042496043	-0.5440627926624434	1.0730026149199028	0.49791166066760406	-0.5616229450134947	0.8269338195247949	0.45976833521502314	-0.6260655279370257	1.344115349761365	0.8915968205339975	-0.6330330443576948	1.0739447167869447	0.9412488010181662	-0.7560757111804701	0.8544771089444755	0.9699644395472002
442	14.733333333333333	-0.6630169296631042	0.8369345114784942	0.7159596225668529	-0.6645846436022992	0.8113019030699026	0.620238447573569	-0.7045677155268529	0.463952721858134	0.6462030532851607	-0.6868828191667329	0.08959817964228642	0.6880374608425744	-0.8777398808743017	0.013675860224052953	0.6932864676922155	-0.8320752173122775	0.004307887282905315	0.6414884219324558	-0.6419203705670712	0.020633659265002154	0.7014719998159743	-0.6552861363089324	0.8079604296305268	0.8048747727778028	-0.7145864549683061	0.465199240757607	0.8164678942946799	-0.45271329967123486	0.2622035976854929	0.7904052179205183	-0.4758708514638122	0.03264556063163236	0.8077967921204339	-0.43842216632428344	0.07755954638472026	0.8517702813491198	-0.3649474333163672	0.25537246158626303	0.7744391873488032	-0.6759884561987014	1.4459404651978944	0.6977426240040354	-0.7757681578111254	1.7052784616323666	0.7039898115580417	-0.8001477249006043	1.5413556513927689	0.6686632584568359	-0.6638768332553694	1.3531139514380122	0.514683531274475	-0.5981858235999258	1.075584151621699	0.4931870643966043	-0.6279619824028353	0.8307550099243549	0.45789803026313547	-0.6616036800556617	1.3503127818967458	0.8920217883374215	-0.6595047764805357	1.077216838770216	0.9410927021479889	-0.7697211774857556	0.8534815176466051	0.9728575038777862
443	14.766666666666667	-0.7010659123010148	0.840133502376204	0.7175895073102081	-0.6985024985036199	0.8138610103987108	0.6207557252983652	-0.7161722938111192	0.46936105075090523	0.6468385269735251	-0.6868708104874024	0.09147814163839636	0.6882528068074449	-0.8757807728535784	0.013437687092195345	0.6920620515768872	-0.8306537564299742	0.004016343886961927	0.64137311792712	-0.641079031010513	0.02353774043937953	0.7012020117231288	-0.6960507420385855	0.8116702553156501	0.807991172602161	-0.777565119220572	0.4707741634257081	0.8253377785290311	-0.5397737045493415	0.25085884962579824	0.7964760664199699	-0.5955114819074665	0.032387723706107395	0.8174397472317972	-0.5582764608366002	0.07261676174064273	0.8574372434917036	-0.45528586360054935	0.23697308278761364	0.7781555014791965	-0.7119815202003197	1.4499403245241216	0.6974433863792641	-0.8134298306875634	1.7085728475881123	0.7041528532636587	-0.8586897854362745	1.549179669534192	0.6922146906984231	-0.7008110308048563	1.3579896460641507	0.5149536045471552	-0.6527571815654835	1.0775860486875288	0.4880787431926371	-0.6980377209903719	0.8357270451562018	0.45632643010878354	-0.6957451606438781	1.354305766933407	0.8925853791506556	-0.6844783938511843	1.0792957653512987	0.9436730537763864	-0.7816219251211342	0.8513979316179685	0.9758507848696436
